{"title":"Super Beavers Vol.9  (1960's)","uid":5268687,"size":1470805245,"categoryP":"porn","categoryS":"movies","magnet":"?xt=urn:btih:cc816f72e366ae2f462749cd433421d577c0130f&amp;dn=Super+Beavers+Vol.9++%281960%5C%27s%29&amp;tr=udp%3A%2F%2Ftracker.openbittorrent.com%3A80&amp;tr=udp%3A%2F%2Fopen.demonii.com%3A1337&amp;tr=udp%3A%2F%2Ftracker.coppersurfer.tk%3A6969&amp;tr=udp%3A%2F%2Fexodus.desync.com%3A6969","seeders":0,"leechers":5,"uploader":"Beebe85","files":-1,"time":1262975338,"description":"Super Beavers Vol.9 (1960's)\n\n\nGeneral\nComplete name                    : Super Beavers Vol.9\nFormat                           : Windows Media\nFile size                        : 1.37 GiB\nDuration                         : 1h 58mn\nOverall bit rate mode            : Variable\nOverall bit rate                 : 1 661 Kbps\nMaximum Overall bit rate         : 3 306 Kbps\nEncoded date                     : UTC 2009-08-19 14:45:34.649\nWriting application              :  6.0.6000.16386 / Windows Movie Maker\nApplication                      : Windows Movie Maker 6.0.6000.16386\n\nVideo\nID                               : 2\nFormat                           : VC-1\nFormat profile                   : MP@ML\nCodec ID                         : WMV3\nCodec ID/Info                    : Windows Media Video 9\nCodec ID/Hint                    : WMV3\nDescription of the codec         : Windows Media Video 9\nDuration                         : 1h 58mn\nBit rate mode                    : Variable\nBit rate                         : 1 546 Kbps\nWidth                            : 640 pixels\nHeight                           : 480 pixels\nDisplay aspect ratio             : 4:3\nFrame rate                       : 30.000 fps\nResolution                       : 24 bits\nScan type                        : Progressive\nBits/(Pixel*Frame)               : 0.168\nStream size                      : 1.28 GiB (93%)\nLanguage                         : English (US)\n\nAudio\nID                               : 1\nFormat                           : WMA\nFormat version                   : Version 2\nCodec ID                         : 161\nCodec ID/Info                    : Windows Media Audio\nDescription of the codec         : Windows Media Audio 9.2 - VBR Quality 90, 48 kHz, stereo 1-pass VBR\nDuration                         : 1h 58mn\nBit rate mode                    : Variable\nBit rate                         : 102 Kbps\nChannel(s)                       : 2 channels\nSampling rate                    : 48.0 KHz\nResolution                       : 16 bits\nStream size                      : 86.5 MiB (6%)\nLanguage                         : English (US)\n\n","torrent":{"xt":"urn:btih:cc816f72e366ae2f462749cd433421d577c0130f","amp;dn":"Super+Beavers+Vol.9++%281960%5C%27s%29","amp;tr":["udp%3A%2F%2Ftracker.openbittorrent.com%3A80","udp%3A%2F%2Fopen.demonii.com%3A1337","udp%3A%2F%2Ftracker.coppersurfer.tk%3A6969","udp%3A%2F%2Fexodus.desync.com%3A6969"],"infoHash":"cc816f72e366ae2f462749cd433421d577c0130f","infoHashBuffer":{"type":"Buffer","data":[204,129,111,114,227,102,174,47,70,39,73,205,67,52,33,213,119,192,19,15]},"announce":[],"urlList":[]}}